PathFileType	4	(X/Y/Z)	D:\Share\Shared_Data\Ergonomics\Sit To Stand Pertubation\S0\Free STS.trc
DataRate	CameraRate	NumFrames	NumMarkers	Units	OrigDataRate	OrigDataStartFrame	OrigNumFrames	
100	100	19	18	m	100	3317	211
Frame#	Time	R_Toe			R_ASIS			R_Pelvis			V_Sacral			L_Pelvis			L_ASIS			Clavical			R_Acromium			L_Acromium			Sternum			Torso			R_Thigh_Med			R_Thigh_Lat			R_Thigh			R_Shank_Med			R_Shank_Lat			R_Shank			R_Heel			
		X1	Y1	Z1	X2	Y2	Z2	X3	Y3	Z3	X4	Y4	Z4	X5	Y5	Z5	X6	Y6	Z6	X7	Y7	Z7	X8	Y8	Z8	X9	Y9	Z9	X10	Y10	Z10	X11	Y11	Z11	X12	Y12	Z12	X13	Y13	Z13	X14	Y14	Z14	X15	Y15	Z15	X16	Y16	Z16	X17	Y17	Z17	X18	Y18	Z18	

3317	19.59	0.37337561	0.052416466	0.14414749	0.01564827	0.74819427	0.15683618	-0.10706682	0.77568683	0.19948129	-0.22828006	0.77980615	-0.032800209	-0.081498711	0.75942035	-0.21193573	0.037112709	0.72824261	-0.16202361	0.26854871	0.99854047	-0.0042725787	0.23638045	1.0963816	0.13126277	0.22918736	1.1039679	-0.14811658	0.23989511	0.90657544	-0.023689688	0.24724477	0.96052826	-0.12379387	0.29680466	0.48952966	0.081157928	0.27819049	0.50859363	0.21442015	0.22018195	0.64791052	0.12986568	0.25320238	0.10251035	0.108382	0.19452425	0.088072304	0.19585626	0.24364676	0.30931802	0.2209464	0.15464267	0.044036133	0.1488839
3318	19.6	0.37350439	0.052281506	0.1440213	0.020136957	0.74922168	0.15668561	-0.10195467	0.77885651	0.19931436	-0.22348952	0.78455988	-0.032806896	-0.07688501	0.76188153	-0.21195706	0.04109259	0.72870093	-0.16209479	0.27696542	0.99562219	-0.003826158	0.24551645	1.093936	0.13110875	0.23846846	1.1014852	-0.14761403	0.24748192	0.90400458	-0.023465609	0.25503123	0.95797125	-0.12330992	0.29785709	0.48922675	0.080545761	0.2797338	0.50856717	0.21384259	0.22243225	0.6480426	0.12899065	0.25338486	0.10233088	0.1081961	0.19468378	0.088070755	0.19575652	0.24452022	0.30924606	0.22056508	0.15465701	0.043979202	0.14886942
3319	19.61	0.37363498	0.052134712	0.14388815	0.024727448	0.75028778	0.15646198	-0.096723846	0.78204456	0.19910739	-0.21858867	0.78930756	-0.032816509	-0.072177368	0.76439349	-0.21197002	0.045141167	0.72925092	-0.1621562	0.28518231	0.9928941	-0.0034172707	0.25446719	1.091656	0.13098074	0.24758563	1.0991835	-0.14712491	0.25496602	0.90161957	-0.023243467	0.26268564	0.95561298	-0.12283241	0.29900757	0.4888992	0.079955933	0.28137946	0.5085184	0.21328001	0.22483308	0.6481499	0.12811473	0.25353729	0.10213805	0.10800713	0.19484215	0.088072937	0.19565106	0.24544023	0.30916888	0.22019382	0.15466541	0.043931927	0.14884645
3320	19.62	0.37376837	0.051980007	0.14375803	0.029391941	0.75140265	0.15617363	-0.091408943	0.78522266	0.19887108	-0.2136053	0.7940108	-0.032830269	-0.067394089	0.76693658	-0.21196988	0.049247463	0.72988977	-0.16219415	0.29318091	0.99037561	-0.0030498502	0.2632153	1.0895698	0.13087621	0.25652295	1.0970861	-0.14665698	0.26230646	0.89944287	-0.023042109	0.27020901	0.95347418	-0.12236252	0.30026852	0.4885509	0.079408249	0.28312128	0.50843674	0.21275534	0.22737888	0.64823254	0.12728252	0.25365466	0.1019287	0.10782091	0.19499901	0.088076294	0.19554266	0.2464026	0.30908304	0.21984633	0.15466977	0.043895222	0.14881737
3321	19.63	0.3739028	0.051821259	0.14363943	0.034100418	0.75257996	0.15583148	-0.086049194	0.78836823	0.19861655	-0.20857124	0.79863318	-0.032851276	-0.062556469	0.76948993	-0.21195448	0.053399395	0.73061499	-0.16219942	0.30094778	0.98808899	-0.0027240098	0.27173862	1.0877041	0.13078935	0.26525671	1.0952168	-0.14621729	0.26946021	0.89750079	-0.02288228	0.27759238	0.95157703	-0.12190154	0.3016521	0.48818729	0.078919327	0.28494955	0.50831479	0.21228813	0.23006256	0.64829291	0.12653493	0.25373315	0.10170151	0.10764371	0.19515356	0.088078857	0.19543549	0.24739943	0.30898685	0.21953539	0.15467177	0.043869553	0.14878519
3322	19.64	0.37403433	0.051662052	0.14353783	0.038822987	0.75383295	0.15544803	-0.080686272	0.79146368	0.19835492	-0.20352077	0.80314038	-0.032882397	-0.057688354	0.77203339	-0.21192337	0.057584866	0.73142676	-0.16216624	0.30847098	0.98606061	-0.0024395471	0.28001169	1.0860841	0.13071259	0.27375589	1.0935979	-0.14581293	0.27638934	0.89582306	-0.022783575	0.28481848	0.94994427	-0.12145332	0.30316702	0.48781436	0.078501106	0.28685229	0.50814908	0.21189299	0.23287688	0.64833588	0.12590502	0.25377199	0.10145789	0.10748141	0.19530518	0.088079651	0.19533473	0.24842081	0.30888016	0.21927094	0.15467297	0.043855068	0.1487531
3323	19.65	0.37415839	0.051505299	0.14345514	0.043531891	0.75517157	0.15503844	-0.075361359	0.79449628	0.19809642	-0.19848808	0.80750385	-0.032925076	-0.052815353	0.7745495	-0.21187799	0.061792141	0.73232886	-0.16209213	0.31573734	0.98432104	-0.0021988912	0.28800732	1.0847344	0.13063684	0.2819845	1.0922523	-0.14545158	0.28306741	0.89443842	-0.022760525	0.29186551	0.94859851	-0.12102615	0.30481372	0.48743686	0.078160049	0.28881677	0.50793994	0.21157872	0.23581468	0.6483681	0.12541504	0.2537764	0.1012031	0.10733854	0.19545363	0.088078918	0.19524596	0.24945688	0.30876431	0.21905843	0.1546749	0.043851753	0.14872404
3324	19.66	0.3742713	0.051353142	0.14339047	0.04820195	0.75660211	0.15462038	-0.070111679	0.7974585	0.19785013	-0.19350471	0.81170294	-0.032979317	-0.047963093	0.77702545	-0.21182182	0.066010078	0.73332782	-0.16197963	0.3227326	0.98290137	-0.002007839	0.29569965	1.0836757	0.13055278	0.289905	1.0912041	-0.14514095	0.28948236	0.89337128	-0.022818819	0.29870963	0.94756146	-0.12063268	0.30658157	0.48705692	0.077896851	0.29083099	0.50769098	0.21134758	0.23886694	0.64839777	0.12507526	0.25376176	0.10094794	0.10721742	0.19559895	0.088077919	0.19517429	0.25049951	0.30864133	0.2188983	0.15467912	0.043859226	0.14870085
3325	19.67	0.37437241	0.051208256	0.14334206	0.052811298	0.75812494	0.15421577	-0.0649683	0.80034851	0.19762434	-0.18859694	0.81572852	-0.0330438	-0.043154991	0.77945502	-0.21176013	0.070228683	0.7344314	-0.16183623	0.32944321	0.98182971	-0.0018738123	0.30306796	1.0829264	0.13045195	0.29748315	1.0904758	-0.1448877	0.29563516	0.8926377	-0.022953224	0.30532721	0.94685236	-0.12028784	0.30845261	0.48667487	0.077706047	0.29288571	0.50740845	0.21119453	0.24202016	0.64843195	0.12488432	0.25375557	0.10070912	0.10711751	0.19574084	0.08807869	0.19512329	0.25154337	0.30851312	0.21878639	0.1546871	0.043876728	0.14868571
3326	19.68	0.37446399	0.051074474	0.14330809	0.057343021	0.75973175	0.15385207	-0.059955154	0.80317175	0.19742743	-0.18378328	0.81958301	-0.03311615	-0.038410088	0.78183881	-0.21169868	0.074439636	0.73564655	-0.16167206	0.33586044	0.9811272	-0.0018031259	0.3100997	1.0825013	0.13032759	0.30469336	1.0900874	-0.14469716	0.30153699	0.89224664	-0.023148594	0.31169684	0.94648657	-0.1200058	0.31040613	0.48629053	0.077576431	0.29497586	0.50710004	0.2111077	0.24525751	0.64847729	0.12482947	0.25378781	0.10050346	0.10703612	0.19587798	0.088083748	0.19509381	0.2525864	0.30838159	0.21871519	0.15469992	0.043903278	0.14867993
3327	19.69	0.37454889	0.050955193	0.14328522	0.061786697	0.76140814	0.15355673	-0.055087406	0.80593915	0.19726701	-0.17907251	0.82328082	-0.033193203	-0.0337416	0.78418536	-0.21164273	0.078636414	0.73697803	-0.16149721	0.34198254	0.98080768	-0.0017990924	0.31679218	1.0824106	0.13017503	0.31152292	1.0900537	-0.1445733	0.30720483	0.89220148	-0.023383873	0.31780179	0.94647504	-0.11979797	0.31242068	0.48590295	0.077492714	0.29709979	0.50677316	0.21106978	0.24856412	0.64854022	0.12488669	0.25387538	0.1003396	0.10696991	0.19600754	0.088095665	0.19508333	0.2536299	0.30824832	0.21867485	0.15471779	0.043937489	0.14868353
3328	19.7	0.3746283	0.050851391	0.14326726	0.066139442	0.76314587	0.15334543	-0.050369225	0.80866565	0.19714816	-0.17446307	0.82684625	-0.033270935	-0.029156315	0.78651044	-0.21159592	0.082813889	0.73842889	-0.16131955	0.34781543	0.98087793	-0.0018615427	0.32315201	1.082662	0.12999161	0.3179729	1.0903827	-0.14451843	0.31265799	0.89250159	-0.0236378	0.32363181	0.94682355	-0.11967188	0.31447513	0.48551047	0.077437355	0.29925751	0.50643283	0.21105991	0.25192833	0.64862415	0.12502353	0.25401709	0.10021582	0.10691582	0.19612698	0.088115959	0.19508624	0.25467786	0.30811478	0.21865401	0.15473984	0.043977314	0.14869547
3329	19.71	0.37470245	0.050761742	0.14324608	0.070406082	0.76495056	0.15321489	-0.045792538	0.81136829	0.19707321	-0.16994385	0.83031097	-0.033343887	-0.024654442	0.78883557	-0.21155959	0.08696817	0.74000085	-0.16114386	0.35337231	0.98133862	-0.0019870452	0.32919241	1.083259	0.12977696	0.32405569	1.0910768	-0.1445327	0.31791498	0.89314496	-0.023894247	0.32918384	0.94753357	-0.11963135	0.31654932	0.48511038	0.077391609	0.3014494	0.50608105	0.21105588	0.25533548	0.64872546	0.12520526	0.25420085	0.10012442	0.10687048	0.19623781	0.088143501	0.19509552	0.25573537	0.30798163	0.21864075	0.1547644	0.044020187	0.1487137
3330	19.72	0.37477124	0.050683468	0.14321327	0.074597572	0.76683484	0.15314885	-0.041338135	0.81406519	0.19704253	-0.16549673	0.833711	-0.033404926	-0.02023007	0.79118561	-0.2115316	0.091096573	0.74169409	-0.16097104	0.35867203	0.98218591	-0.0021694398	0.33493051	1.084202	0.12953339	0.32979138	1.0921323	-0.14461308	0.32299118	0.89412897	-0.024144836	0.33446188	0.94860284	-0.11967686	0.31862466	0.48469989	0.077336456	0.30367535	0.50571793	0.21103621	0.25876208	0.64883087	0.12540007	0.25441139	0.10005546	0.10682944	0.19634618	0.088174698	0.19510513	0.25680624	0.30784918	0.21862404	0.15478929	0.044063343	0.14873541
3331	19.73	0.37483481	0.050612957	0.14316154	0.078727905	0.76880139	0.15313083	-0.036978973	0.8167749	0.19705519	-0.16110028	0.83708301	-0.033445553	-0.015872617	0.79358545	-0.21150639	0.095197533	0.7435061	-0.16079796	0.36373608	0.9834126	-0.0024008818	0.34038409	1.08549	0.12926523	0.33520319	1.0935428	-0.14475316	0.32789697	0.89545062	-0.024387842	0.33947577	0.950026	-0.11980595	0.32068344	0.48427692	0.077253654	0.30593219	0.50534378	0.21098216	0.26217725	0.64892053	0.12558083	0.25463399	0.099998886	0.10678722	0.19645882	0.088206772	0.19511133	0.25789139	0.30771747	0.21859451	0.15481247	0.044104237	0.14875751
3332	19.74	0.37489291	0.050546085	0.14308556	0.082811005	0.77083588	0.15315147	-0.032684723	0.81951636	0.19710922	-0.15673398	0.84046143	-0.033456829	-0.011569344	0.7960575	-0.21147577	0.099270096	0.74543195	-0.16061768	0.36858459	0.98501013	-0.002672909	0.34556992	1.0871198	0.12897833	0.3403147	1.0952983	-0.1449435	0.33263977	0.89710638	-0.024624533	0.34424142	0.9517951	-0.12001326	0.32270761	0.48384122	0.077126945	0.30821033	0.50496097	0.21087823	0.26554935	0.64897382	0.12572539	0.25485587	0.099945717	0.10673823	0.19657986	0.088239983	0.19511258	0.25898834	0.30758755	0.21854431	0.15483235	0.044141171	0.1487775
3333	19.75	0.37494543	0.050478668	0.1429821	0.086859528	0.77291736	0.15320428	-0.028426081	0.82230762	0.19720157	-0.15238199	0.84387659	-0.033431297	-0.0073081989	0.79862006	-0.21143063	0.10331316	0.74746606	-0.16042165	0.37323355	0.98696857	-0.0029770784	0.3505032	1.0890858	0.12867917	0.34514777	1.0973877	-0.14517314	0.33722562	0.89909119	-0.024855518	0.34878003	0.95390033	-0.12029037	0.32467828	0.48339505	0.076943016	0.3104921	0.50457526	0.21071259	0.26885388	0.64897699	0.12581631	0.25506689	0.099888885	0.10667735	0.1967106	0.088276459	0.19510817	0.26009119	0.3074614	0.21846678	0.15484819	0.044174015	0.14879567
3334	19.76	0.37499255	0.050406929	0.14285022	0.090884766	0.77503369	0.15327795	-0.024178492	0.82516486	0.19732773	-0.14803574	0.84735364	-0.033365116	-0.0030804963	0.80128546	-0.21136308	0.10732493	0.74960284	-0.16020192	0.37769479	0.9892782	-0.0033054118	0.35519864	1.0913813	0.12837447	0.34972275	1.0997983	-0.14543152	0.34165988	0.90139832	-0.025079235	0.35311542	0.95632922	-0.12062555	0.3265759	0.4829437	0.076692642	0.31275238	0.50419522	0.21047728	0.27208057	0.64892975	0.12584113	0.25525972	0.099823692	0.10660068	0.19684888	0.088317474	0.19509676	0.26119025	0.30734204	0.21835712	0.15486008	0.044204548	0.14881604
3335	19.77	0.37503525	0.050327995	0.14269102	0.094896408	0.77718799	0.15335489	-0.01992485	0.82810156	0.19748137	-0.14369409	0.85091138	-0.033258678	0.0011171199	0.80406036	-0.21126758	0.11130224	0.75183691	-0.15995334	0.38197879	0.99192859	-0.0036505609	0.35967059	1.0939967	0.12807028	0.35405923	1.1025159	-0.14570973	0.34594995	0.90401947	-0.025292871	0.35727063	0.95906714	-0.12100372	0.32838165	0.4824946	0.076371025	0.31496066	0.50383008	0.21016829	0.27523795	0.6488493	0.12579205	0.25542947	0.099747955	0.1065059	0.19698991	0.088362564	0.19507681	0.26227203	0.30723361	0.21821292	0.15486838	0.044235626	0.148845
